<?xml version="1.0" encoding="UTF-8"?>
<svg width="16px" height="22px" viewBox="0 0 16 22" version="1.1" xmlns="http://www.w3.org/2000/svg" xmlns:xlink="http://www.w3.org/1999/xlink">
    <!-- Generator: sketchtool 51.2 (57519) - http://www.bohemiancoding.com/sketch -->
    <title>E0A7049B-0949-4923-8A08-9E441AD258D7-479-00000698CD17D7AD</title>
    <desc>Created with sketchtool.</desc>
    <defs></defs>
    <g id="Flow2:-Discovery-&amp;-filter-search" stroke="none" stroke-width="1" fill="none" fill-rule="evenodd">
        <g id="DF-c-1" transform="translate(-1308.000000, -39.000000)" fill="#999999">
            <g id="nav/top">
                <path d="M1322.87878,55.9578511 C1322.87878,56.2375114 1322.64966,56.4643369 1322.36718,56.4643369 L1317.83177,56.4643369 L1317.82349,56.4643369 L1309.61394,56.4643369 C1309.33237,56.4643369 1309.10418,56.2375114 1309.10418,55.9578511 L1309.10418,50.6479488 C1309.10418,46.8884761 1312.19311,43.8295206 1315.99148,43.8295206 C1319.78892,43.8295206 1322.87878,46.8884761 1322.87878,50.6479488 L1322.87878,55.9578511 Z M1315.99148,59.0942363 C1315.21763,59.0942363 1314.58825,58.4711495 1314.58825,57.7050442 C1314.58825,57.6549422 1314.59101,57.6057511 1314.59561,57.5565601 L1317.38734,57.5565601 C1317.39194,57.6057511 1317.3947,57.6549422 1317.3947,57.7050442 C1317.3947,58.4711495 1316.7644,59.0942363 1315.99148,59.0942363 Z M1317.72227,42.9240406 C1317.97071,42.5797031 1318.11702,42.1597572 1318.11702,41.7042844 C1318.11702,40.5419178 1317.16559,39.6 1315.99148,39.6 C1314.81737,39.6 1313.86594,40.5419178 1313.86594,41.7042844 C1313.86594,42.1597572 1314.01224,42.5797031 1314.25976,42.9240406 C1310.68315,43.7092757 1308,46.8729899 1308,50.6479485 L1308,55.9578506 C1308,56.8396459 1308.72416,57.5565601 1309.61394,57.5565601 L1313.48868,57.5565601 C1313.48592,57.6057512 1313.48408,57.6549423 1313.48408,57.7050443 C1313.48408,59.0741955 1314.6085,60.1873711 1315.99148,60.1873711 C1317.37446,60.1873711 1318.49796,59.0741955 1318.49796,57.7050443 C1318.49796,57.6549423 1318.49612,57.6057512 1318.49336,57.5565601 L1322.36718,57.5565601 C1323.25788,57.5565601 1323.98204,56.8396459 1323.98204,55.9578506 L1323.98204,50.6479485 C1323.98204,46.8729899 1321.29981,43.7092757 1317.72227,42.9240406 Z" id="Bell"></path>
            </g>
        </g>
    </g>
</svg>