<?xml version="1.0" encoding="UTF-8"?>
<svg width="21px" height="21px" viewBox="0 0 21 21" version="1.1" xmlns="http://www.w3.org/2000/svg" xmlns:xlink="http://www.w3.org/1999/xlink">
    <!-- Generator: sketchtool 51.2 (57519) - http://www.bohemiancoding.com/sketch -->
    <title>075B4281-0FDD-417B-AF49-D36FD48E8A34</title>
    <desc>Created with sketchtool.</desc>
    <defs></defs>
    <g id="Documentation" stroke="none" stroke-width="1" fill="none" fill-rule="evenodd">
        <g id="Doc/button/fixed" transform="translate(-129.000000, -260.000000)" fill="#999999">
            <path d="M133,269 L136,269 L136,272 L133,272 L133,269 Z M143,269 L146,269 L146,272 L143,272 L143,269 Z M143,274 L146,274 L146,277 L143,277 L143,274 Z M133,274 L136,274 L136,277 L133,277 L133,274 Z M138,274 L141,274 L141,277 L138,277 L138,274 Z M138,269 L141,269 L141,272 L138,272 L138,269 Z M149,265 L130,265 L130,262.893067 C130,261.849589 130.818057,261 131.825332,261 L133.129465,261 L134.49025,261 L144.510883,261 L145.869402,261 L147.173534,261 C148.18081,261 149,261.849589 149,262.893067 L149,265 Z M149,278.228871 C149,279.205629 148.18081,280 147.173534,280 L131.825332,280 C130.818057,280 130,279.205629 130,278.228871 L130,267 L149,267 L149,278.228871 Z M145.659328,260 L144.345732,260 L134.656459,260 L133.340672,260 L132.079664,260 C130.381521,260 129,261.405872 129,263.133946 L129,277.864939 C129,279.594128 130.381521,281 132.079664,281 L146.920336,281 C148.619574,281 150,279.594128 150,277.864939 L150,263.133946 C150,261.405872 148.619574,260 146.920336,260 L145.659328,260 Z" id="Calendar"></path>
        </g>
    </g>
</svg>