<?xml version="1.0" encoding="UTF-8"?>
<svg width="19px" height="20px" viewBox="0 0 19 20" version="1.1" xmlns="http://www.w3.org/2000/svg" xmlns:xlink="http://www.w3.org/1999/xlink">
    <!-- Generator: sketchtool 51.2 (57519) - http://www.bohemiancoding.com/sketch -->
    <title>F9F74F8C-BF5A-43F3-89E7-B45A7C6D62B1-405-0000024B101BDC6F</title>
    <desc>Created with sketchtool.</desc>
    <defs></defs>
    <g id="Flow1:-Visualise-the-deck" stroke="none" stroke-width="1" fill="none" fill-rule="evenodd">
        <g id="Vs-h-2" transform="translate(-1110.000000, -40.000000)" fill="#999999">
            <g id="nav/top">
                <g id="icon/deck" transform="translate(1110.000000, 40.590000)">
                    <path d="M3.61904762,8.06142898 L6.33333333,8.06142898 L6.33333333,10.7485717 L3.61904762,10.7485717 L3.61904762,8.06142898 Z M12.6666667,8.06142898 L15.3809524,8.06142898 L15.3809524,10.7485717 L12.6666667,10.7485717 L12.6666667,8.06142898 Z M12.6666667,12.5400003 L15.3809524,12.5400003 L15.3809524,15.2271431 L12.6666667,15.2271431 L12.6666667,12.5400003 Z M3.61904762,12.5400003 L6.33333333,12.5400003 L6.33333333,15.2271431 L3.61904762,15.2271431 L3.61904762,12.5400003 Z M8.14285714,12.5400003 L10.8571429,12.5400003 L10.8571429,15.2271431 L8.14285714,15.2271431 L8.14285714,12.5400003 Z M8.14285714,8.06142898 L10.8571429,8.06142898 L10.8571429,10.7485717 L8.14285714,10.7485717 L8.14285714,8.06142898 Z M18.0952381,4.47857146 L0.904761905,4.47857146 L0.904761905,2.59136144 C0.904761905,1.65670305 1.64490883,0.895714291 2.55625318,0.895714291 L3.7361827,0.895714291 L4.96736893,0.895714291 L14.0336562,0.895714291 L15.2627922,0.895714291 L16.4427217,0.895714291 C17.354066,0.895714291 18.0952381,1.65670305 18.0952381,2.59136144 L18.0952381,4.47857146 Z M18.0952381,16.3278602 C18.0952381,17.2027562 17.354066,17.9142858 16.4427217,17.9142858 L2.55625318,17.9142858 C1.64490883,17.9142858 0.904761905,17.2027562 0.904761905,16.3278602 L0.904761905,6.27000016 L18.0952381,6.27000016 L18.0952381,16.3278602 Z M15.0727254,0 L13.8842341,0 L5.11774833,0 L3.92727462,0 L2.78636269,0 C1.24994783,0 0,1.2592594 0,2.80711988 L0,16.0018815 C0,17.5507406 1.24994783,18.81 2.78636269,18.81 L16.2136373,18.81 C17.7510434,18.81 19,17.5507406 19,16.0018815 L19,2.80711988 C19,1.2592594 17.7510434,0 16.2136373,0 L15.0727254,0 Z" id="Calendar"></path>
                </g>
            </g>
        </g>
    </g>
</svg>