<?xml version="1.0" encoding="UTF-8"?>
<svg width="12px" height="11px" viewBox="0 0 12 11" version="1.1" xmlns="http://www.w3.org/2000/svg" xmlns:xlink="http://www.w3.org/1999/xlink">
    <!-- Generator: sketchtool 51.2 (57519) - http://www.bohemiancoding.com/sketch -->
    <title>3C84CC3E-9CF1-47CF-9299-FA989CDB6F97-405-0000024B1DDDAC1D</title>
    <desc>Created with sketchtool.</desc>
    <defs></defs>
    <g id="Flow1:-Visualise-the-deck" stroke="none" stroke-width="1" fill="none" fill-rule="evenodd">
        <g id="Vs-j-1" transform="translate(-617.000000, -444.000000)" fill="#000000">
            <g id="deck" transform="translate(0.000000, 233.000000)">
                <g id="card/standard/sharing" transform="translate(561.000000, 1.000000)">
                    <path d="M58.630762,217.762674 C58.726392,217.762674 58.822647,217.724942 58.8957758,217.650116 L61.6909214,214.790116 C61.7890515,214.689709 61.9478098,214.689709 62.0453149,214.790116 L63.00724,215.77436 C63.3841346,216.16064 64.0435439,216.16064 64.4210636,215.77436 L66.9868222,213.14843 L66.9868222,214.380814 C66.9868222,214.59314 67.154956,214.765174 67.3618418,214.765174 C67.5687275,214.765174 67.7362363,214.59314 67.7362363,214.380814 L67.7362363,212.222384 C67.7362363,212.1725 67.7268608,212.123256 67.7074848,212.07593 C67.6693578,211.981919 67.596854,211.907093 67.5043492,211.868721 C67.4587218,211.848895 67.4105943,211.838663 67.3618418,211.838663 L65.2523569,211.838663 C65.0454711,211.838663 64.8773374,212.010698 64.8773374,212.222384 C64.8773374,212.434709 65.0454711,212.606105 65.2523569,212.606105 L66.4567946,212.606105 L63.891036,215.231395 C63.7935309,215.331163 63.6347726,215.331163 63.5372676,215.231395 L62.5753425,214.247151 C62.1853222,213.848081 61.5509141,213.848081 61.1615188,214.247151 L58.3657482,217.107791 C58.2194906,217.257442 58.2194906,217.500465 58.3657482,217.650116 C58.438877,217.724942 58.535132,217.762674 58.630762,217.762674 M68,220.616279 C68,220.828605 67.8324913,221 67.6256055,221 L57.0000521,221 C56.4487734,221 56,220.541453 56,219.976744 L56,210.383721 C56,210.172035 56.1681338,210 56.3750195,210 C56.5819053,210 56.749414,210.172035 56.749414,210.383721 L56.749414,219.976744 C56.749414,220.118081 56.8619199,220.232558 57.0000521,220.232558 L67.6256055,220.232558 C67.8324913,220.232558 68,220.404593 68,220.616279" id="Chart"></path>
                </g>
            </g>
        </g>
    </g>
</svg>