<?xml version="1.0" encoding="UTF-8"?>
<svg width="19px" height="21px" viewBox="0 0 19 21" version="1.1" xmlns="http://www.w3.org/2000/svg" xmlns:xlink="http://www.w3.org/1999/xlink">
    <!-- Generator: sketchtool 51.2 (57519) - http://www.bohemiancoding.com/sketch -->
    <title>D785746A-2806-497D-9130-F25AD7C12E1E-405-0000024B081F7A0B</title>
    <desc>Created with sketchtool.</desc>
    <defs></defs>
    <g id="Flow1:-Visualise-the-deck" stroke="none" stroke-width="1" fill="none" fill-rule="evenodd">
        <g id="Vs-h-1" transform="translate(-1204.000000, -40.000000)" fill="#999999">
            <g id="nav/top">
                <path d="M1221.08918,54.8831959 C1221.08918,55.0251623 1221.00994,55.1549869 1220.88163,55.2203662 L1213.6767,58.9096258 L1213.6767,50.121716 L1221.08918,46.3269155 L1221.08918,54.8831959 Z M1213.11065,49.1503667 L1205.79817,45.4069357 L1212.93423,41.7531678 C1213.04461,41.6961944 1213.17669,41.6971284 1213.28707,41.7522338 L1220.42313,45.4069357 L1213.11065,49.1503667 Z M1212.54459,58.9096258 L1205.33966,55.2194322 C1205.21136,55.1549869 1205.13211,55.0251623 1205.13211,54.8831959 L1205.13211,46.3269155 L1212.54459,50.121716 L1212.54459,58.9096258 Z M1222.21846,45.3555663 C1222.21846,45.3508964 1222.21752,45.3471604 1222.21752,45.3415565 C1222.21563,45.3284806 1222.21374,45.3154048 1222.21091,45.3023289 C1222.20997,45.297659 1222.20997,45.293923 1222.20903,45.2901871 C1222.2062,45.2752432 1222.20242,45.2612334 1222.19771,45.2472235 C1222.19582,45.2406856 1222.19393,45.2350817 1222.19205,45.2285437 C1222.18922,45.2201378 1222.18544,45.2117319 1222.18261,45.203326 C1222.17978,45.1958541 1222.17695,45.1893162 1222.17412,45.1827782 C1222.1694,45.1706364 1222.1628,45.1575605 1222.1562,45.1463526 C1222.15242,45.1388807 1222.14959,45.1332768 1222.14582,45.1267388 C1222.1411,45.1192669 1222.13638,45.111795 1222.13167,45.1043231 C1222.12789,45.0987191 1222.12412,45.0931152 1222.12035,45.0865773 C1222.1128,45.0763034 1222.10431,45.0650955 1222.09582,45.0557556 C1222.0911,45.0492177 1222.08638,45.0436138 1222.08072,45.0380098 C1222.07506,45.0314719 1222.07034,45.024934 1222.06374,45.01933 C1222.05808,45.0137261 1222.05242,45.0081221 1222.0477,45.0025182 C1222.04204,44.9978483 1222.03544,44.9922443 1222.02978,44.9866404 C1222.01751,44.9763665 1222.00525,44.9660926 1221.99204,44.9567527 C1221.98827,44.9539507 1221.98449,44.9511488 1221.98072,44.9483468 C1221.97223,44.9418089 1221.96374,44.9371389 1221.9543,44.931535 C1221.95147,44.928733 1221.9477,44.926865 1221.94487,44.924997 C1221.93449,44.9193931 1221.92317,44.9128552 1221.91185,44.9072512 L1213.80689,40.7575346 L1213.80689,40.7566006 C1213.37103,40.534311 1212.85026,40.534311 1212.4144,40.7575346 L1204.30944,44.9072512 C1204.29812,44.9128552 1204.2868,44.9193931 1204.27642,44.924997 C1204.27359,44.926865 1204.26982,44.928733 1204.26699,44.931535 C1204.25755,44.9371389 1204.24906,44.9418089 1204.24057,44.9483468 C1204.2368,44.9511488 1204.23303,44.9539507 1204.22925,44.9567527 C1204.21604,44.9660926 1204.20378,44.9763665 1204.19152,44.9866404 C1204.18585,44.9922443 1204.17925,44.9978483 1204.17359,45.0025182 C1204.16793,45.0081221 1204.16321,45.0137261 1204.15755,45.01933 C1204.15095,45.024934 1204.14623,45.0314719 1204.14057,45.0380098 C1204.13491,45.0436138 1204.12925,45.0492177 1204.12548,45.0557556 C1204.11698,45.0650955 1204.10849,45.0763034 1204.10095,45.0865773 C1204.09717,45.0931152 1204.0934,45.0987191 1204.08868,45.1043231 C1204.08491,45.111795 1204.08019,45.1192669 1204.07547,45.1267388 C1204.0717,45.1332768 1204.06793,45.1388807 1204.0651,45.1463526 C1204.05849,45.1575605 1204.05189,45.1706364 1204.04717,45.1827782 C1204.04434,45.1893162 1204.04151,45.1958541 1204.03868,45.203326 C1204.03585,45.2117319 1204.03208,45.2201378 1204.02925,45.2285437 C1204.02736,45.2350817 1204.02547,45.2406856 1204.02359,45.2472235 C1204.01887,45.2612334 1204.01509,45.2752432 1204.01226,45.2901871 C1204.01132,45.293923 1204.01038,45.297659 1204.00943,45.3023289 C1204.00755,45.3154048 1204.00566,45.3284806 1204.00377,45.3415565 C1204.00377,45.3471604 1204.00283,45.3508964 1204.00283,45.3555663 C1204.00094,45.3723782 1204,45.38919 1204,45.4069358 L1204,54.8831962 C1204,55.446392 1204.31416,55.9563505 1204.81984,56.2150656 L1212.838,60.3208848 C1212.84083,60.3227527 1212.8446,60.3246207 1212.84837,60.3264887 L1212.85026,60.3274227 C1212.86064,60.3330266 1212.87102,60.3376966 1212.88234,60.3423665 C1212.88988,60.3461025 1212.89649,60.3489044 1212.90498,60.3517064 C1212.91253,60.3545084 1212.92007,60.3573104 1212.92762,60.3601123 C1212.93517,60.3629143 1212.94366,60.3657163 1212.95215,60.3675842 C1212.96442,60.3713202 1212.97574,60.3741222 1212.988,60.3769241 C1212.99272,60.3778581 1212.99838,60.3787921 1213.0031,60.3797261 C1213.01819,60.3834621 1213.03329,60.3853301 1213.04932,60.387198 C1213.05215,60.387198 1213.05498,60.388132 1213.05876,60.388132 C1213.07574,60.39 1213.09272,60.39 1213.11065,60.39 C1213.12857,60.39 1213.14555,60.39 1213.16253,60.388132 C1213.16631,60.388132 1213.16914,60.387198 1213.17197,60.387198 C1213.18801,60.3853301 1213.2031,60.3834621 1213.2182,60.3797261 C1213.22291,60.3787921 1213.22857,60.3778581 1213.23329,60.3769241 C1213.24556,60.3741222 1213.25688,60.3713202 1213.26914,60.3675842 C1213.27763,60.3657163 1213.28612,60.3629143 1213.29367,60.3601123 C1213.30122,60.3573104 1213.30876,60.3545084 1213.31631,60.3517064 C1213.3248,60.3489044 1213.33141,60.3461025 1213.33895,60.3423665 C1213.35028,60.3376966 1213.36065,60.3330266 1213.37103,60.3274227 L1213.37292,60.3264887 C1213.37669,60.3246207 1213.38047,60.3227527 1213.3833,60.3208848 L1221.40146,56.2159996 C1221.90713,55.9563505 1222.22129,55.446392 1222.22129,54.8831962 L1222.22129,45.4069358 C1222.22129,45.38919 1222.22035,45.3723782 1222.21846,45.3555663 Z" id="Cube"></path>
            </g>
        </g>
    </g>
</svg>