<?xml version="1.0" encoding="UTF-8"?>
<svg width="20px" height="20px" viewBox="0 0 20 20" version="1.1" xmlns="http://www.w3.org/2000/svg" xmlns:xlink="http://www.w3.org/1999/xlink">
    <!-- Generator: Sketch 51.2 (57519) - http://www.bohemiancoding.com/sketch -->
    <title>Discover</title>
    <desc>Created with Sketch.</desc>
    <defs></defs>
    <g id="Nav" stroke="none" stroke-width="1" fill="none" fill-rule="evenodd">
        <g id="nav/top/login/mvp" transform="translate(-1232.000000, -41.000000)" fill="#999999">
            <path d="M1242,50.0566038 C1242.52075,50.0566038 1242.9434,50.4792453 1242.9434,51 C1242.9434,51.5207547 1242.52075,51.9433962 1242,51.9433962 C1241.47925,51.9433962 1241.0566,51.5207547 1241.0566,51 C1241.0566,50.4792453 1241.47925,50.0566038 1242,50.0566038 Z M1242,54.140566 L1235.71887,51 L1242,47.859434 L1248.28113,51 L1242,54.140566 Z M1249.80094,50.4933962 L1242.25377,46.7198113 C1242.0934,46.6396226 1241.9066,46.6396226 1241.74623,46.7198113 L1234.19906,50.4933962 C1234.00755,50.5896226 1233.88679,50.7858491 1233.88679,51 C1233.88679,51.2141509 1234.00755,51.4103774 1234.19906,51.5066038 L1241.74623,55.2801887 C1241.82642,55.3198113 1241.91321,55.3396226 1242,55.3396226 C1242.08679,55.3396226 1242.17358,55.3198113 1242.25377,55.2801887 L1249.80094,51.5066038 C1249.99245,51.4103774 1250.11321,51.2141509 1250.11321,51 C1250.11321,50.7858491 1249.99245,50.5896226 1249.80094,50.4933962 Z M1242,59.8679245 C1237.10943,59.8679245 1233.13208,55.8896226 1233.13208,51 C1233.13208,46.1103774 1237.10943,42.1320755 1242,42.1320755 C1246.89057,42.1320755 1250.86792,46.1103774 1250.86792,51 C1250.86792,55.8896226 1246.89057,59.8679245 1242,59.8679245 Z M1242,41 C1236.48585,41 1232,45.4858491 1232,51 C1232,56.5141509 1236.48585,61 1242,61 C1247.51415,61 1252,56.5141509 1252,51 C1252,45.4858491 1247.51415,41 1242,41 Z" id="Discover" transform="translate(1242.000000, 51.000000) rotate(90.000000) translate(-1242.000000, -51.000000) "></path>
        </g>
    </g>
</svg>