<?xml version="1.0" encoding="UTF-8"?>
<svg width="18px" height="13px" viewBox="0 0 18 13" version="1.1" xmlns="http://www.w3.org/2000/svg" xmlns:xlink="http://www.w3.org/1999/xlink">
    <!-- Generator: sketchtool 51.2 (57519) - http://www.bohemiancoding.com/sketch -->
    <title>9E622A70-CCA8-4C42-9A9D-FAEE51EA7FAE-364-00000C1E2D4AA948</title>
    <desc>Created with sketchtool.</desc>
    <defs></defs>
    <g id="Documentation" stroke="none" stroke-width="1" fill="none" fill-rule="evenodd">
        <g id="Doc/deck" transform="translate(-769.000000, -2977.000000)" fill="#626262">
            <g id="Group-2" transform="translate(116.000000, 1867.000000)">
                <g id="deck" transform="translate(0.000000, 111.000000)">
                    <g id="card/standard" transform="translate(400.000000, 812.000000)">
                        <g id="button/upvote" transform="translate(242.000000, 179.000000)">
                            <g id="icon/upvote" transform="translate(11.000000, 8.000000)">
                                <path d="M16.7871018,1.94085862 L9.24835967,11.5720207 C9.16208296,11.6836417 9.05570293,11.7 9.00041882,11.7 C8.94429707,11.7 8.83791704,11.6836417 8.75164033,11.5720207 L1.2128982,1.94085862 C1.08138903,1.77342709 1.12913439,1.59637306 1.15593881,1.52805329 C1.18274323,1.45973353 1.26483175,1.3 1.46167669,1.3 L16.539161,1.3 C16.7351682,1.3 16.8180944,1.45973353 16.8440612,1.52805329 C16.8708656,1.59637306 16.918611,1.77342709 16.7871018,1.94085862 M16.6399976,0 L1.3606336,0 C0.816518465,0 0.341160473,0.357283465 0.120458548,0.933070866 C-0.10109223,1.50885827 -0.0128114603,2.15748031 0.350497862,2.6269685 L7.99017988,12.4783465 C8.24823136,12.8100394 8.61578495,13 9.00031561,13 C9.38399742,13 9.75155101,12.8100394 10.0096025,12.4783465 L17.6492845,2.6269685 C18.0125938,2.15748031 18.1008746,1.50885827 17.8801727,0.933070866 C17.6586219,0.357283465 17.1832639,0 16.6399976,0" id="Eject" transform="translate(9.000000, 6.500000) rotate(180.000000) translate(-9.000000, -6.500000) "></path>
                            </g>
                        </g>
                    </g>
                </g>
            </g>
        </g>
    </g>
</svg>