<?xml version="1.0" encoding="UTF-8"?>
<svg width="15px" height="11px" viewBox="0 0 15 11" version="1.1" xmlns="http://www.w3.org/2000/svg" xmlns:xlink="http://www.w3.org/1999/xlink">
    <!-- Generator: sketchtool 51.2 (57519) - http://www.bohemiancoding.com/sketch -->
    <title>F8B7BA79-EBE2-4685-8299-ED4C23C01EEB-405-0000024B1DDDCB0C</title>
    <desc>Created with sketchtool.</desc>
    <defs></defs>
    <g id="Flow1:-Visualise-the-deck" stroke="none" stroke-width="1" fill="none" fill-rule="evenodd">
        <g id="Vs-j-1" transform="translate(-750.000000, -445.000000)" fill="#000000">
            <g id="deck" transform="translate(0.000000, 233.000000)">
                <g id="card/standard/sharing" transform="translate(561.000000, 1.000000)">
                    <path d="M200.002747,211 C199.729945,211 199.508242,211.224184 199.508242,211.500038 L199.508242,221.500796 C199.508242,221.77665 199.729945,222 200.002747,222 C200.275549,222 200.497253,221.77665 200.497253,221.500796 L200.497253,211.500038 C200.497253,211.224184 200.275549,211 200.002747,211 M203.505495,213.646034 C203.232692,213.646034 203.010989,213.869384 203.010989,214.145238 L203.010989,218.854762 C203.010989,219.130616 203.232692,219.353966 203.505495,219.353966 C203.778297,219.353966 204,219.130616 204,218.854762 L204,214.145238 C204,213.869384 203.778297,213.646034 203.505495,213.646034 M196.5,213.646034 C196.227198,213.646034 196.005495,213.869384 196.005495,214.145238 L196.005495,218.854762 C196.005495,219.130616 196.227198,219.353966 196.5,219.353966 C196.772802,219.353966 196.994505,219.130616 196.994505,218.854762 L196.994505,214.145238 C196.994505,213.869384 196.772802,213.646034 196.5,213.646034 M192.997253,211 C192.724451,211 192.502747,211.224184 192.502747,211.500038 L192.502747,221.500796 C192.502747,221.77665 192.724451,222 192.997253,222 C193.270055,222 193.491758,221.77665 193.491758,221.500796 L193.491758,211.500038 C193.491758,211.224184 193.270055,211 192.997253,211 M189.989011,214.145238 L189.989011,218.854762 C189.989011,219.130616 189.767308,219.353966 189.494505,219.353966 C189.221703,219.353966 189,219.130616 189,218.854762 L189,214.145238 C189,213.869384 189.221703,213.646034 189.494505,213.646034 C189.767308,213.646034 189.989011,213.869384 189.989011,214.145238" id="Equalizer"></path>
                </g>
            </g>
        </g>
    </g>
</svg>