<?xml version="1.0" encoding="UTF-8"?>
<svg width="18px" height="18px" viewBox="0 0 18 18" version="1.1" xmlns="http://www.w3.org/2000/svg" xmlns:xlink="http://www.w3.org/1999/xlink">
    <!-- Generator: sketchtool 51.2 (57519) - http://www.bohemiancoding.com/sketch -->
    <title>CB7AC414-576D-4CF4-AEB1-BFDD97337948</title>
    <desc>Created with sketchtool.</desc>
    <defs></defs>
    <g id="Documentation" stroke="none" stroke-width="1" fill="none" fill-rule="evenodd">
        <g id="Doc/button/fixed" transform="translate(-361.000000, -304.000000)" fill="#7600FF">
            <g id="icon/cross/default-copy" transform="translate(361.000000, 304.000000)">
                <g id="Group-2">
                    <path d="M16.9568574,17.7319284 C17.0759864,17.8510574 17.2327887,17.911131 17.389591,17.911131 C17.5443569,17.911131 17.7011592,17.8510574 17.8213065,17.7319284 C18.0595645,17.4946885 18.0595645,17.1077737 17.8213065,16.8684975 L1.9315183,0.179552127 C1.69529665,-0.0587059211 1.30736367,-0.0597241179 1.06910562,0.179552127 C0.829829376,0.416791979 0.829829376,0.803706758 1.06910562,1.042983 L16.9568574,17.7319284 Z" id="Shuffle-arrow"></path>
                    <path d="M16.9568574,17.7319284 C17.0759864,17.8510574 17.2327887,17.911131 17.389591,17.911131 C17.5443569,17.911131 17.7011592,17.8510574 17.8213065,17.7319284 C18.0595645,17.4946885 18.0595645,17.1077737 17.8213065,16.8684975 L1.9315183,0.179552127 C1.69529665,-0.0587059211 1.30736367,-0.0597241179 1.06910562,0.179552127 C0.829829376,0.416791979 0.829829376,0.803706758 1.06910562,1.042983 L16.9568574,17.7319284 Z" id="Shuffle-arrow" transform="translate(9.444824, 8.955804) scale(-1, 1) translate(-9.444824, -8.955804) "></path>
                </g>
            </g>
        </g>
    </g>
</svg>