<?xml version="1.0" encoding="UTF-8"?>
<svg width="16px" height="15px" viewBox="0 0 16 15" version="1.1" xmlns="http://www.w3.org/2000/svg" xmlns:xlink="http://www.w3.org/1999/xlink">
    <!-- Generator: sketchtool 51.2 (57519) - http://www.bohemiancoding.com/sketch -->
    <title>B8B7B4E5-4C7B-4ACC-A67F-CAF9542C7DF4</title>
    <desc>Created with sketchtool.</desc>
    <defs></defs>
    <g id="Flow1:-Visualise-the-deck" stroke="none" stroke-width="1" fill="none" fill-rule="evenodd">
        <g id="Vs-h-2" transform="translate(-1165.000000, -194.000000)" fill="#D8D8D8">
            <g id="nav/second" transform="translate(1135.000000, 192.000000)">
                <path d="M30.8412935,10.4848633 L45.1587065,10.4848633 C45.6242222,10.4848633 46,10.0378241 46,9.48569731 C46,8.93357054 45.6242222,8.48486328 45.1587065,8.48486328 L30.8412935,8.48486328 C30.3757778,8.48486328 30,8.93357054 30,9.48569731 C30,10.0378241 30.3757778,10.4848633 30.8412935,10.4848633 M30.8110201,16.9697266 L45.1284331,16.9697266 C45.5939488,16.9697266 45.9697266,16.5226874 45.9697266,15.9705606 C45.9697266,15.4184338 45.5939488,14.9697266 45.1284331,14.9697266 L30.8110201,14.9697266 C30.3455043,14.9697266 29.9697266,15.4184338 29.9697266,15.9705606 C29.9697266,16.5226874 30.3455043,16.9697266 30.8110201,16.9697266 M29.9697266,3.00083403 C29.9697266,2.44870726 30.3455043,2 30.8110201,2 L45.1284331,2 C45.5939488,2 45.9697266,2.44870726 45.9697266,3.00083403 C45.9697266,3.5529608 45.5939488,4 45.1284331,4 L30.8110201,4 C30.3455043,4 29.9697266,3.5529608 29.9697266,3.00083403" id="listview"></path>
            </g>
        </g>
    </g>
</svg>