<?xml version="1.0" encoding="UTF-8"?>
<svg width="21px" height="19px" viewBox="0 0 21 19" version="1.1" xmlns="http://www.w3.org/2000/svg" xmlns:xlink="http://www.w3.org/1999/xlink">
    <!-- Generator: sketchtool 51 (57462) - http://www.bohemiancoding.com/sketch -->
    <title>715E2D16-0EB5-447D-897C-C2B23604477C-517-000000D50EE13404</title>
    <desc>Created with sketchtool.</desc>
    <defs></defs>
    <g id="Flow0:-Signup-MVP" stroke="none" stroke-width="1" fill="none" fill-rule="evenodd">
        <g id="Signup-e-1-751px" transform="translate(-630.000000, -40.000000)">
            <rect fill="#FFFFFF" x="0" y="0" width="751" height="1024"></rect>
            <g id="nav/top/preset/752" transform="translate(-1.000000, -1.000000)" fill="#000000">
                <g id="icon/feed" transform="translate(631.000000, 41.000000)">
                    <path d="M16.1943553,10.5417609 C16.1943553,10.8560577 15.9389298,11.1124327 15.624633,11.1124327 L12.233836,11.1124327 C11.9195392,11.1124327 11.6641137,10.8560577 11.6641137,10.5417609 C11.6641137,10.2274641 11.9195392,9.97108909 12.233836,9.97108909 L15.624633,9.97108909 C15.9389298,9.97108909 16.1943553,10.2274641 16.1943553,10.5417609 Z M16.1943553,7.07974862 C16.1943553,7.39499494 15.9389298,7.64947088 15.624633,7.64947088 L12.233836,7.64947088 C11.9195392,7.64947088 11.6641137,7.39499494 11.6641137,7.07974862 C11.6641137,6.76450231 11.9195392,6.51002636 12.233836,6.51002636 L15.624633,6.51002636 C15.9389298,6.51002636 16.1943553,6.76450231 16.1943553,7.07974862 Z M5.07432627,10.5018803 L8.45752696,10.5018803 L8.45752696,7.11962918 L5.07432627,7.11962918 L5.07432627,10.5018803 Z M9.02629968,5.98018466 L4.50460401,5.98018466 C4.19030723,5.98018466 3.93583128,6.2346606 3.93583128,6.54990692 L3.93583128,11.0716026 C3.93583128,11.3868489 4.19030723,11.6413249 4.50460401,11.6413249 L9.02629968,11.6413249 C9.34059646,11.6413249 9.59602194,11.3868489 9.59602194,11.0716026 L9.59602194,6.54990692 C9.59602194,6.2346606 9.34059646,5.98018466 9.02629968,5.98018466 Z M18.990742,15.1479654 L16.3909094,17.6405003 L13.6154125,14.9798973 C13.3951199,14.7681505 13.0475893,14.767201 12.8263472,14.9808468 L10.0565474,17.6405003 L7.28769725,14.9808468 C7.06740464,14.767201 6.71892452,14.767201 6.49768238,14.9808468 L3.72978173,17.6405003 L1.13944452,15.1479654 L1.13944452,2.8305701 C1.13944452,1.89812466 1.89717513,1.13944452 2.8305701,1.13944452 L17.2996164,1.13944452 C18.2320619,1.13944452 18.990742,1.89812466 18.990742,2.8305701 L18.990742,15.1479654 Z M17.2996164,0 L2.8305701,0 C1.2695311,0 0,1.2695311 0,2.8305701 L0,15.3255288 C0,15.3388223 0.0066467597,15.3483177 0.00759629681,15.3606617 C-0.0018990742,15.5201839 0.0503254663,15.6816052 0.174714827,15.8021964 L3.3347743,18.8397656 C3.5550669,19.0515124 3.90449656,19.0534115 4.12478917,18.8397656 L6.89268981,16.1801122 L9.66154,18.8397656 C9.88278214,19.0534115 10.2312623,19.0534115 10.4515549,18.8397656 L13.2213546,16.1801122 L15.9968515,18.8407152 C16.1069978,18.9470633 16.2494284,18.9992878 16.3909094,18.9992878 C16.5323905,18.9992878 16.674821,18.9470633 16.7849673,18.8407152 L19.9545222,15.8021964 C20.0789115,15.6825548 20.1311361,15.5211334 20.1225902,15.3616112 C20.1235398,15.3483177 20.1301865,15.3388223 20.1301865,15.3255288 L20.1301865,2.8305701 C20.1301865,1.2695311 18.8606554,0 17.2996164,0 Z" id="News-paper"></path>
                </g>
            </g>
        </g>
    </g>
</svg>