<?xml version="1.0" encoding="UTF-8"?>
<svg width="21px" height="20px" viewBox="0 0 21 20" version="1.1" xmlns="http://www.w3.org/2000/svg" xmlns:xlink="http://www.w3.org/1999/xlink">
    <!-- Generator: sketchtool 51.2 (57519) - http://www.bohemiancoding.com/sketch -->
    <title>7DFB096C-A9CB-4FA1-A1C8-0E3D778A0723-405-0000024B081F20CE</title>
    <desc>Created with sketchtool.</desc>
    <defs></defs>
    <g id="Flow1:-Visualise-the-deck" stroke="none" stroke-width="1" fill="none" fill-rule="evenodd">
        <g id="Vs-h-1" transform="translate(-1296.000000, -40.000000)" fill="#999999">
            <g id="nav/top">
                <g id="icon/feed" transform="translate(1296.000000, 40.590000)">
                    <path d="M16.1943553,10.4363435 C16.1943553,10.7474974 15.9389298,11.0013086 15.624633,11.0013086 L12.233836,11.0013086 C11.9195392,11.0013086 11.6641137,10.7474974 11.6641137,10.4363435 C11.6641137,10.1251897 11.9195392,9.87137847 12.233836,9.87137847 L15.624633,9.87137847 C15.9389298,9.87137847 16.1943553,10.1251897 16.1943553,10.4363435 Z M16.1943553,7.0089512 C16.1943553,7.32104504 15.9389298,7.57297622 15.624633,7.57297622 L12.233836,7.57297622 C11.9195392,7.57297622 11.6641137,7.32104504 11.6641137,7.0089512 C11.6641137,6.69685736 11.9195392,6.44492619 12.233836,6.44492619 L15.624633,6.44492619 C15.9389298,6.44492619 16.1943553,6.69685736 16.1943553,7.0089512 Z M5.07432627,10.3968618 L8.45752696,10.3968618 L8.45752696,7.04843309 L5.07432627,7.04843309 L5.07432627,10.3968618 Z M9.02629968,5.92038271 L4.50460401,5.92038271 C4.19030723,5.92038271 3.93583128,6.17231388 3.93583128,6.48440772 L3.93583128,10.9608863 C3.93583128,11.2729801 4.19030723,11.5249113 4.50460401,11.5249113 L9.02629968,11.5249113 C9.34059646,11.5249113 9.59602194,11.2729801 9.59602194,10.9608863 L9.59602194,6.48440772 C9.59602194,6.17231388 9.34059646,5.92038271 9.02629968,5.92038271 Z M18.990742,14.9964864 L16.3909094,17.4640961 L13.6154125,14.8300991 C13.3951199,14.6204697 13.0475893,14.6195297 12.8263472,14.8310391 L10.0565474,17.4640961 L7.28769725,14.8310391 C7.06740464,14.6195297 6.71892452,14.6195297 6.49768238,14.8310391 L3.72978173,17.4640961 L1.13944452,14.9964864 L1.13944452,2.80226444 C1.13944452,1.87914341 1.89717513,1.12805003 2.8305701,1.12805003 L17.2996164,1.12805003 C18.2320619,1.12805003 18.990742,1.87914341 18.990742,2.80226444 L18.990742,14.9964864 Z M17.2996164,0 L2.8305701,0 C1.2695311,0 0,1.25683579 0,2.8022644 L0,15.1722735 C0,15.1854341 0.0066467597,15.1948345 0.00759629681,15.2070551 C-0.0018990742,15.3649821 0.0503254663,15.5247892 0.174714827,15.6441745 L3.3347743,18.651368 C3.5550669,18.8609973 3.90449656,18.8628773 4.12478917,18.651368 L6.89268981,16.0183111 L9.66154,18.651368 C9.88278214,18.8628773 10.2312623,18.8628773 10.4515549,18.651368 L13.2213546,16.0183111 L15.9968515,18.652308 C16.1069978,18.7575927 16.2494284,18.809295 16.3909094,18.809295 C16.5323905,18.809295 16.674821,18.7575927 16.7849673,18.652308 L19.9545222,15.6441745 C20.0789115,15.5257292 20.1311361,15.3659221 20.1225902,15.2079951 C20.1235398,15.1948345 20.1301865,15.1854341 20.1301865,15.1722735 L20.1301865,2.8022644 C20.1301865,1.25683579 18.8606554,0 17.2996164,0 Z" id="News-paper"></path>
                </g>
            </g>
        </g>
    </g>
</svg>