<?xml version="1.0" encoding="UTF-8"?>
<svg width="12px" height="12px" viewBox="0 0 12 12" version="1.1" xmlns="http://www.w3.org/2000/svg" xmlns:xlink="http://www.w3.org/1999/xlink">
    <!-- Generator: sketchtool 51.2 (57519) - http://www.bohemiancoding.com/sketch -->
    <title>70FD2383-2994-4219-B38E-30CA578083B0-405-0000024B1DDC7A5F</title>
    <desc>Created with sketchtool.</desc>
    <defs></defs>
    <g id="Flow1:-Visualise-the-deck" stroke="none" stroke-width="1" fill="none" fill-rule="evenodd">
        <g id="Vs-j-1" transform="translate(-624.000000, -515.000000)" fill="#999999">
            <g id="deck" transform="translate(0.000000, 233.000000)">
                <g id="card/standard/sharing" transform="translate(561.000000, 1.000000)">
                    <path d="M74.2876875,291.355153 C74.2876875,291.858914 73.8884598,292.268754 73.3983366,292.268754 L72.9385118,292.268754 L72.9385118,289.609677 C72.9385118,289.055296 72.4988861,288.603985 71.9588593,288.603985 L66.0411407,288.603985 C65.5011139,288.603985 65.0620823,289.055296 65.0620823,289.609677 L65.0620823,292.268754 L64.6016634,292.268754 C64.1115402,292.268754 63.7123125,291.858914 63.7123125,291.355153 L63.7123125,282.645456 C63.7123125,282.141695 64.1115402,281.731856 64.6016634,281.731856 L65.2670429,281.731856 L65.2670429,283.335841 C65.2670429,283.890222 65.7066686,284.340923 66.2466954,284.340923 L69.4173474,284.340923 C69.9573741,284.340923 70.3964058,283.890222 70.3964058,283.335841 L70.3964058,281.731856 L70.4385861,281.731856 C70.6732512,281.731856 70.9049458,281.829437 71.0718847,281.995324 L74.0274766,285.029478 C74.1950097,285.202074 74.2876875,285.431388 74.2876875,285.675341 L74.2876875,291.355153 Z M72.2256052,292.268754 L65.7743948,292.268754 L65.7743948,289.609677 C65.7743948,289.459036 65.8944007,289.335231 66.0411407,289.335231 L71.9588593,289.335231 C72.1055993,289.335231 72.2256052,289.459036 72.2256052,289.609677 L72.2256052,292.268754 Z M65.9799495,281.731856 L69.6840933,281.731856 L69.6840933,283.335841 C69.6840933,283.486481 69.5640873,283.609677 69.4173474,283.609677 L66.2466954,283.609677 C66.0999554,283.609677 65.9799495,283.486481 65.9799495,283.335841 L65.9799495,281.731856 Z M74.5306698,284.512299 L71.5721075,281.475097 C71.2655577,281.168937 70.8627655,281 70.4385861,281 L70.0405466,281 L65.6234962,281 L64.6016634,281 C63.7182534,281 63,281.737955 63,282.645456 L63,291.355153 C63,292.262045 63.7182534,293 64.6016634,293 L73.3983366,293 C74.2817466,293 75,292.262045 75,291.355153 L75,285.675341 C75,285.236227 74.8336551,284.822728 74.5306698,284.512299 Z" id="Save"></path>
                </g>
            </g>
        </g>
    </g>
</svg>