<?xml version="1.0" encoding="UTF-8"?>
<svg width="12px" height="15px" viewBox="0 0 12 15" version="1.1" xmlns="http://www.w3.org/2000/svg" xmlns:xlink="http://www.w3.org/1999/xlink">
    <!-- Generator: sketchtool 51.2 (57519) - http://www.bohemiancoding.com/sketch -->
    <title>85757892-F7F5-428E-A430-0FE62F51F960-405-0000024B1DDCE246</title>
    <desc>Created with sketchtool.</desc>
    <defs></defs>
    <g id="Flow1:-Visualise-the-deck" stroke="none" stroke-width="1" fill="none" fill-rule="evenodd">
        <g id="Vs-j-1" transform="translate(-624.000000, -538.000000)" fill="#999999">
            <g id="deck" transform="translate(0.000000, 233.000000)">
                <g id="card/standard/sharing" transform="translate(561.000000, 1.000000)">
                    <path d="M72.726812,318.151611 C71.9253544,318.151611 71.2735296,317.475872 71.2735296,316.64588 C71.2735296,315.815888 71.9253544,315.140856 72.726812,315.140856 C73.5282697,315.140856 74.1800945,315.815888 74.1800945,316.64588 C74.1800945,317.475872 73.5282697,318.151611 72.726812,318.151611 M65.273188,313.006085 C64.4717303,313.006085 63.8199055,312.329638 63.8199055,311.500354 C63.8199055,310.670362 64.4717303,309.994622 65.273188,309.994622 C66.0746456,309.994622 66.7264704,310.670362 66.7264704,311.500354 C66.7264704,312.329638 66.0746456,313.006085 65.273188,313.006085 M72.726812,304.848389 C73.5282697,304.848389 74.1800945,305.524128 74.1800945,306.35412 C74.1800945,307.184112 73.5282697,307.859144 72.726812,307.859144 C71.9253544,307.859144 71.2735296,307.184112 71.2735296,306.35412 C71.2735296,305.524128 71.9253544,304.848389 72.726812,304.848389 M72.726812,314.292467 C72.0872858,314.292467 71.5092524,314.567715 71.0952001,315.008538 L67.3605307,312.432945 C67.4801002,312.147082 67.5463759,311.831501 67.5463759,311.500354 C67.5463759,311.168499 67.4801002,310.853625 67.3605307,310.567055 L71.0952001,307.992169 C71.5092524,308.432992 72.0872858,308.707533 72.726812,308.707533 C73.9799009,308.707533 75,307.651823 75,306.35412 C75,305.05571 73.9799009,304 72.726812,304 C71.4730399,304 70.4529408,305.05571 70.4529408,306.35412 C70.4529408,306.685268 70.5198998,307.000142 70.6394693,307.286712 L66.9047999,309.861597 C66.4907476,309.420067 65.9127142,309.145526 65.273188,309.145526 C64.0194158,309.145526 63,310.201943 63,311.500354 C63,312.798764 64.0194158,313.854474 65.273188,313.854474 C65.9127142,313.854474 66.4907476,313.579933 66.9047999,313.138403 L70.6394693,315.713996 C70.5198998,315.999858 70.4529408,316.314732 70.4529408,316.64588 C70.4529408,317.94429 71.4730399,319 72.726812,319 C73.9799009,319 75,317.94429 75,316.64588 C75,315.348177 73.9799009,314.292467 72.726812,314.292467" id="Share-Copy"></path>
                </g>
            </g>
        </g>
    </g>
</svg>