<?xml version="1.0" encoding="UTF-8"?>
<svg width="21px" height="26px" viewBox="0 0 21 26" version="1.1" xmlns="http://www.w3.org/2000/svg" xmlns:xlink="http://www.w3.org/1999/xlink">
    <!-- Generator: Sketch 51.2 (57519) - http://www.bohemiancoding.com/sketch -->
    <title>Share</title>
    <desc>Created with Sketch.</desc>
    <defs></defs>
    <g id="Flow3:-Dashboard,-display-decks" stroke="none" stroke-width="1" fill="none" fill-rule="evenodd">
        <g id="Dd-b-1" transform="translate(-584.000000, -132.000000)" fill="#000000">
            <path d="M600.974738,149.344376 C599.858669,149.344376 598.849915,149.808212 598.127332,150.551066 L591.609776,146.210798 C591.818443,145.729076 591.934104,145.197274 591.934104,144.63924 C591.934104,144.080013 591.818443,143.549404 591.609776,143.066489 L598.127332,138.727414 C598.849915,139.470268 599.858669,139.932912 600.974738,139.932912 C603.161565,139.932912 604.94179,138.153879 604.94179,135.967052 C604.94179,133.779033 603.161565,132 600.974738,132 C598.786718,132 597.006493,133.779033 597.006493,135.967052 C597.006493,136.525086 597.123347,137.055696 597.332013,137.53861 L590.814458,141.877685 C590.091875,141.133639 589.083121,140.670996 587.967052,140.670996 C585.779033,140.670996 584,142.451221 584,144.63924 C584,146.827259 585.779033,148.606292 587.967052,148.606292 C589.083121,148.606292 590.091875,148.143648 590.814458,147.399602 L597.332013,151.73987 C597.123347,152.221592 597.006493,152.752201 597.006493,153.310235 C597.006493,155.498255 598.786718,157.277287 600.974738,157.277287 C603.161565,157.277287 604.94179,155.498255 604.94179,153.310235 C604.94179,151.123408 603.161565,149.344376 600.974738,149.344376" id="Share"></path>
        </g>
    </g>
</svg>