<?xml version="1.0" encoding="UTF-8"?>
<svg width="17px" height="20px" viewBox="0 0 17 20" version="1.1" xmlns="http://www.w3.org/2000/svg" xmlns:xlink="http://www.w3.org/1999/xlink">
    <!-- Generator: sketchtool 51 (57462) - http://www.bohemiancoding.com/sketch -->
    <title>12F8A936-06F9-4F86-84C9-38A48B926B7F-971-0000040E6EA5036D</title>
    <desc>Created with sketchtool.</desc>
    <defs></defs>
    <g id="Documentation" stroke="none" stroke-width="1" fill="none" fill-rule="evenodd">
        <g id="Doc/share" transform="translate(-1174.000000, -2088.000000)">
            <rect fill="#FFFFFF" x="0" y="0" width="2807" height="2870"></rect>
            <g id="card/standard" transform="translate(1150.000000, 1904.000000)" fill="#626262">
                <g id="button/share/default" transform="translate(19.000000, 179.000000)">
                    <g id="icon/share" transform="translate(4.000000, 5.000000)">
                        <path d="M14.8251953,18.8999023 C13.7222334,18.8999023 12.8251953,18.002135 12.8251953,16.8994323 C12.8251953,15.7967296 13.7222334,14.8999023 14.8251953,14.8999023 C15.9281572,14.8999023 16.8251953,15.7967296 16.8251953,16.8994323 C16.8251953,18.002135 15.9281572,18.8999023 14.8251953,18.8999023 M4.20849609,12.0249023 C3.10553418,12.0249023 2.20849609,11.1264061 2.20849609,10.0249023 C2.20849609,8.92245873 3.10553418,8.02490234 4.20849609,8.02490234 C5.31145801,8.02490234 6.20849609,8.92245873 6.20849609,10.0249023 C6.20849609,11.1264061 5.31145801,12.0249023 4.20849609,12.0249023 M14.7879639,1.14379883 C15.8909258,1.14379883 16.7879639,2.04156616 16.7879639,3.14426886 C16.7879639,4.24697157 15.8909258,5.14379883 14.7879639,5.14379883 C13.6850019,5.14379883 12.7879639,4.24697157 12.7879639,3.14426886 C12.7879639,2.04156616 13.6850019,1.14379883 14.7879639,1.14379883 M14.7796504,13.7232888 C13.8736548,13.7232888 13.0547742,14.0902873 12.4682002,14.6780509 L7.17741844,11.2439266 C7.34680863,10.8627765 7.4406992,10.442002 7.4406992,10.0004717 C7.4406992,9.55799802 7.34680863,9.13816689 7.17741844,8.7560734 L12.4682002,5.32289259 C13.0547742,5.91065616 13.8736548,6.27671117 14.7796504,6.27671117 C16.5548596,6.27671117 18,4.8690976 18,3.1388273 C18,1.40761357 16.5548596,0 14.7796504,0 C13.0034732,0 11.5583329,1.40761357 11.5583329,3.1388273 C11.5583329,3.58035756 11.6531914,4.00018869 11.8225816,4.38228218 L6.53179981,7.81546299 C5.94522576,7.22675598 5.12634516,6.86070098 4.2203496,6.86070098 C2.44417241,6.86070098 1,8.26925798 1,10.0004717 C1,11.7316855 2.44417241,13.139299 4.2203496,13.139299 C5.12634516,13.139299 5.94522576,12.773244 6.53179981,12.184537 L11.8225816,15.6186613 C11.6531914,15.9998113 11.5583329,16.4196424 11.5583329,16.8611727 C11.5583329,18.5923864 13.0034732,20 14.7796504,20 C16.5548596,20 18,18.5923864 18,16.8611727 C18,15.1309024 16.5548596,13.7232888 14.7796504,13.7232888" id="Share"></path>
                    </g>
                </g>
            </g>
        </g>
    </g>
</svg>