<?xml version="1.0" encoding="UTF-8"?>
<svg width="15px" height="13px" viewBox="0 0 15 13" version="1.1" xmlns="http://www.w3.org/2000/svg" xmlns:xlink="http://www.w3.org/1999/xlink">
    <!-- Generator: sketchtool 51.2 (57519) - http://www.bohemiancoding.com/sketch -->
    <title>EAC09BF5-6F8E-494D-9674-FF346083DE50-405-0000024B1DDB9A8D</title>
    <desc>Created with sketchtool.</desc>
    <defs>
        <path d="M4.71786567,13 C10.3775997,13 13.4742584,7.99793914 13.4742584,3.66065872 C13.4742584,3.51828252 13.4742584,3.37671223 13.4648824,3.23594784 C14.0675077,2.7719268 14.5866008,2.19597478 15,1.53683567 C14.4391408,1.80242548 13.8433345,1.97676917 13.2330378,2.05359859 C13.8748721,1.64321487 14.3556086,0.998492465 14.5866008,0.23772003 C13.9814183,0.620076233 13.3208319,0.88969556 12.6312649,1.03448947 C11.4660757,-0.287012371 9.51670644,-0.351036887 8.27736106,0.892113269 C7.47869076,1.69362858 7.13859529,2.88878273 7.38663484,4.02868776 C4.9130583,3.89589285 2.60739857,2.64951909 1.04415274,0.599301844 C0.22758268,2.09917688 0.645243778,4.01749466 1.99710194,4.98054875 C1.5078418,4.96541569 1.02795772,4.82456175 0.60006819,4.57025458 L0.60006819,4.61180336 C0.600920559,6.1740911 1.6339925,7.51959094 3.06938288,7.82914724 C2.61592226,7.96113624 2.14030003,7.98038837 1.68002046,7.88520227 C2.08319127,9.22264308 3.23900443,10.1385966 4.55506308,10.1650123 C3.46488237,11.0785481 2.11899079,11.5745367 0.733037845,11.5729249 C0.488407774,11.572119 0.243777702,11.5568964 0,11.5257348 C1.40811456,12.4887889 3.04551654,13 4.71786567,12.9975823 L4.71786567,13 Z" id="path-1"></path>
    </defs>
    <g id="Flow1:-Visualise-the-deck" stroke="none" stroke-width="1" fill="none" fill-rule="evenodd">
        <g id="Vs-j-1" transform="translate(-934.000000, -361.000000)">
            <g id="deck" transform="translate(0.000000, 233.000000)">
                <g id="card/standard/sharing" transform="translate(561.000000, 1.000000)">
                    <g id="button/med/center/default-copy-2" transform="translate(363.000000, 121.000000)">
                        <g id="icon/twitter" transform="translate(10.000000, 6.000000)">
                            <g id="Group-3">
                                <mask id="mask-2" fill="white">
                                    <use xlink:href="#path-1"></use>
                                </mask>
                                <g id="Clip-2"></g>
                                <polygon id="Fill-1" fill="#FFFFFF" mask="url(#mask-2)" points="-3.21428571 16.25 19.2857143 16.25 19.2857143 -4.33333333 -3.21428571 -4.33333333"></polygon>
                            </g>
                        </g>
                    </g>
                </g>
            </g>
        </g>
    </g>
</svg>