<?xml version="1.0" encoding="UTF-8"?>
<svg width="15px" height="14px" viewBox="0 0 15 14" version="1.1" xmlns="http://www.w3.org/2000/svg" xmlns:xlink="http://www.w3.org/1999/xlink">
    <!-- Generator: sketchtool 51.2 (57519) - http://www.bohemiancoding.com/sketch -->
    <title>E82A5EFB-031D-46F3-8633-C6CC75771626-364-00000C1E2C87EB52</title>
    <desc>Created with sketchtool.</desc>
    <defs></defs>
    <g id="Documentation" stroke="none" stroke-width="1" fill="none" fill-rule="evenodd">
        <g id="Doc/deck" transform="translate(-805.000000, -2650.000000)" fill="#FFFFFF">
            <g id="Group-2" transform="translate(116.000000, 1867.000000)">
                <g id="deck" transform="translate(0.000000, 111.000000)">
                    <g id="card/standard/action" transform="translate(400.000000, 406.000000)">
                        <path d="M303.491429,279.478377 C303.491429,279.711223 303.297524,279.899183 303.058929,279.899183 L294.408929,279.899183 C291.785816,279.899183 289.651429,277.822509 289.651429,275.270326 C289.651429,272.718143 291.785816,270.641469 294.408929,270.641469 L302.015162,270.641469 L298.429016,267.151592 C298.25962,266.987478 298.25962,266.720968 298.429016,266.556854 C298.597691,266.392039 298.870887,266.392039 299.039562,266.556854 L303.364562,270.764204 C303.404208,270.803479 303.435924,270.849768 303.45827,270.901667 C303.50152,271.004063 303.502241,271.120486 303.45827,271.222882 C303.435924,271.274781 303.404208,271.32107 303.364562,271.360345 L299.039562,275.567695 C298.955224,275.650453 298.844937,275.691131 298.733929,275.691131 C298.623641,275.691131 298.513354,275.650453 298.429016,275.567695 C298.25962,275.403581 298.25962,275.137071 298.429016,274.972957 L302.015162,271.48308 L294.408929,271.48308 C292.263008,271.48308 290.516429,273.18173 290.516429,275.270326 C290.516429,277.358922 292.263008,279.057572 294.408929,279.057572 L303.058929,279.057572 C303.297524,279.057572 303.491429,279.245532 303.491429,279.478377" id="U-turn-arrow"></path>
                    </g>
                </g>
            </g>
        </g>
    </g>
</svg>