<?xml version="1.0" encoding="UTF-8"?>
<svg width="15px" height="9px" viewBox="0 0 15 9" version="1.1" xmlns="http://www.w3.org/2000/svg" xmlns:xlink="http://www.w3.org/1999/xlink">
    <!-- Generator: sketchtool 51.2 (57519) - http://www.bohemiancoding.com/sketch -->
    <title>B2FAE7D9-3602-43DA-BD01-95444CEACF6C-405-0000024B1DDCA38E</title>
    <desc>Created with sketchtool.</desc>
    <defs></defs>
    <g id="Flow1:-Visualise-the-deck" stroke="none" stroke-width="1" fill="none" fill-rule="evenodd">
        <g id="Vs-j-1" transform="translate(-620.000000, -492.000000)" fill="#999999">
            <g id="deck" transform="translate(0.000000, 233.000000)">
                <g id="card/standard/sharing" transform="translate(561.000000, 1.000000)">
                    <g id="Visible-Copy" transform="translate(59.000000, 258.000000)">
                        <path d="M7.52041298,6.06443392 C6.68206303,6.06443392 5.99959674,5.38466512 5.99959674,4.5496288 C5.99959674,3.71459248 6.68206303,3.03482368 7.52041298,3.03482368 C8.35876294,3.03482368 9.04122923,3.71459248 9.04122923,4.5496288 C9.04122923,5.38466512 8.35876294,6.06443392 7.52041298,6.06443392 M7.52041298,2.27742112 C6.26257121,2.27742112 5.23918861,3.29675873 5.23918861,4.5496288 C5.23918861,5.80249887 6.26257121,6.82183648 7.52041298,6.82183648 C8.77825476,6.82183648 9.80163736,5.80249887 9.80163736,4.5496288 C9.80163736,3.29675873 8.77825476,2.27742112 7.52041298,2.27742112 M14.075131,4.67964957 C12.6303556,6.91083128 10.1805741,8.24259744 7.52041298,8.24259744 C4.8602519,8.24259744 2.41047039,6.91083128 0.966328626,4.67964957 C0.915634751,4.60201581 0.915634751,4.49724179 0.966328626,4.41960803 C2.41047039,2.18842632 4.8602519,0.857291326 7.52041298,0.857291326 C10.1805741,0.857291326 12.6303556,2.18842632 14.075131,4.4202392 C14.1251912,4.49787296 14.1251912,4.60201581 14.075131,4.67964957 M14.7138738,4.00934831 C13.1296902,1.56104454 10.4397465,0.0992575986 7.52041298,0.0992575986 C4.60107946,0.0992575986 1.91176939,1.56104454 0.326952128,4.00934831 C0.114037854,4.33755608 0.114037854,4.76170152 0.326952128,5.09054046 C1.91176939,7.53821306 4.60107946,9 7.52041298,9 C10.4397465,9 13.1296902,7.53821306 14.7138738,5.09054046 C14.9267881,4.76233268 14.9267881,4.33755608 14.7138738,4.00934831" id="Visible"></path>
                    </g>
                </g>
            </g>
        </g>
    </g>
</svg>